<?xml version="1.0" encoding="UTF-8"?>
<svg xmlns="http://www.w3.org/2000/svg" viewBox="0 0 1080 1650" width="100%" height="100%" style="max-width: 100%; height: auto; display: block; margin: 0 auto;">
  <defs>
    <style><![CDATA[
      @import url('https://fonts.googleapis.com/css2?family=Material+Symbols+Outlined:opsz,wght,FILL,GRAD@24,400,0,0');
      @import url('https://fonts.googleapis.com/css2?family=Public+Sans:wght@400;500;600;700;800&family=Roboto+Mono:wght@400;600;700&display=swap');

      .font-sans { font-family: 'Public Sans', -apple-system, BlinkMacSystemFont, 'Segoe UI', Roboto, Arial, sans-serif; }
      .font-mono { font-family: 'Roboto Mono', 'SFMono-Regular', Consolas, Monaco, monospace; }

      .text-title { font-family: 'Public Sans', sans-serif; font-weight: 800; font-size: 15px; fill: #ffffff; letter-spacing: -0.01em; }
      .text-subtitle { font-family: 'Public Sans', sans-serif; font-weight: 500; font-size: 10.5px; fill: #f1f5f9; }
      .text-subcite { font-family: 'Public Sans', sans-serif; font-weight: 600; font-size: 9.5px; fill: #fde047; }
      .text-header-box { font-family: 'Public Sans', sans-serif; font-weight: 700; font-size: 11.5px; fill: #ffffff; letter-spacing: 0.02em; }
      .text-tag { font-family: 'Public Sans', sans-serif; font-weight: 700; font-size: 9.2px; }

      .text-item-title { font-family: 'Public Sans', sans-serif; font-weight: 700; font-size: 10.8px; fill: #162e51; }
      .text-item-desc { font-family: 'Public Sans', sans-serif; font-weight: 400; font-size: 9.8px; fill: #2d3748; line-height: 1.35; }
      .text-item-sub { font-family: 'Public Sans', sans-serif; font-weight: 400; font-size: 9.2px; fill: #5c6b7e; }

      .text-flow-num { font-family: 'Public Sans', sans-serif; font-weight: 800; font-size: 10.5px; fill: #ffffff; }

      .flow-arrow-down { stroke: #0066cc; stroke-width: 2.2; fill: none; }
      .flow-arrow-green { stroke: #15803d; stroke-width: 2.2; fill: none; }
      .flow-arrow-gold { stroke: #d97706; stroke-width: 2.2; fill: none; }
    ]]></style>

    <filter id="shadow-1" x="-4%" y="-4%" width="108%" height="108%">
      <feDropShadow dx="0" dy="2" stdDeviation="3" flood-color="#000000" flood-opacity="0.08"/>
    </filter>
    <filter id="shadow-2" x="-5%" y="-5%" width="110%" height="110%">
      <feDropShadow dx="0" dy="3" stdDeviation="6" flood-color="#000000" flood-opacity="0.12"/>
    </filter>

    <linearGradient id="headerGrad" x1="0%" y1="0%" x2="100%" y2="0%">
      <stop offset="0%" stop-color="#071426"/>
      <stop offset="50%" stop-color="#0f2647"/>
      <stop offset="100%" stop-color="#163866"/>
    </linearGradient>

    <linearGradient id="sec1Grad" x1="0%" y1="0%" x2="100%" y2="0%">
      <stop offset="0%" stop-color="#004987"/>
      <stop offset="100%" stop-color="#1a5b8c"/>
    </linearGradient>

    <linearGradient id="sec2Grad" x1="0%" y1="0%" x2="100%" y2="0%">
      <stop offset="0%" stop-color="#0050a0"/>
      <stop offset="100%" stop-color="#0076d6"/>
    </linearGradient>

    <linearGradient id="sec3Grad" x1="0%" y1="0%" x2="100%" y2="0%">
      <stop offset="0%" stop-color="#154721"/>
      <stop offset="100%" stop-color="#2e8540"/>
    </linearGradient>

    <linearGradient id="sec4Grad" x1="0%" y1="0%" x2="100%" y2="0%">
      <stop offset="0%" stop-color="#8c3b00"/>
      <stop offset="100%" stop-color="#df7e00"/>
    </linearGradient>

    <marker id="arrow-down-blue" viewBox="0 0 10 10" refX="5" refY="6" markerWidth="6" markerHeight="6" orient="auto">
      <path d="M 1 0 L 5 10 L 9 0 z" fill="#0050a0"/>
    </marker>
    <marker id="arrow-down-green" viewBox="0 0 10 10" refX="5" refY="6" markerWidth="6" markerHeight="6" orient="auto">
      <path d="M 1 0 L 5 10 L 9 0 z" fill="#2e8540"/>
    </marker>

    <pattern id="uswds-grid" width="24" height="24" patternUnits="userSpaceOnUse">
      <path d="M 24 0 L 0 0 0 24" fill="none" stroke="#e2e8f0" stroke-width="0.75"/>
    </pattern>
  </defs>

  <!-- CANVAS BACKGROUND (HOJA FOLIO VERTICAL 1080 x 1650) -->
  <rect width="1080" height="1650" fill="#ffffff"/>
  <rect width="1080" height="1650" fill="url(#uswds-grid)" opacity="0.65"/>

  <!-- ================= 1. HEADER HERO (OPTIMIZADO) ================= -->
  <g transform="translate(40, 16)">
    <rect x="0" y="0" width="1000" height="96" rx="8" fill="url(#headerGrad)" stroke="#1e3a8a" stroke-width="1.2" filter="url(#shadow-2)"/>
    <rect x="0" y="0" width="7" height="96" rx="3.5" fill="#38bdf8"/>

    <!-- Title & Subtitle (No icon in top header, full width layout from x=24) -->
    <g transform="translate(24, 0)">
      <text x="0" y="32" class="text-title">ARQUITECTURA DE INTEGRACIÓN V-1.0: CIBERSEGURIDAD JUDICIAL</text>
      <text x="0" y="53" class="text-subtitle">
        Base Técnica Original: CSIRT-Ulpiano, Zero Trust en Tribunales, Cadena de Custodia ISO 27037
      </text>
      <text x="0" y="74" class="text-subcite">
        Ámbito Sectorial: Cortes, Tribunales y Fiscalías del Poder Judicial Venezolano
      </text>
    </g>

    <!-- Right Badges (Bounded from x=755 to x=985 - Width 230px, HIGH CONTRAST) -->
    <g transform="translate(755, 16)">
      <rect x="0" y="0" width="230" height="28" rx="5" fill="#004987" stroke="#38bdf8" stroke-width="1"/>
      <text x="115" y="18" class="text-tag" fill="#ffffff" text-anchor="middle">VERSIÓN 1.0 BASE</text>

      <rect x="0" y="36" width="230" height="28" rx="5" fill="#0f172a" stroke="#475569" stroke-width="1"/>
      <text x="115" y="54" class="text-tag" fill="#38bdf8" text-anchor="middle">HOJA FOLIO VERTICAL</text>
    </g>
  </g>

  <!-- ================= 2. BLOQUE 1: REGLAMENTO (UE) 2023/2841 ================= -->
  <g transform="translate(40, 124)">
    <rect x="0" y="0" width="1000" height="330" rx="8" fill="#f8fafc" stroke="#aacdec" stroke-width="1.5" filter="url(#shadow-1)"/>
    <rect x="0" y="0" width="1000" height="34" rx="8" fill="url(#sec1Grad)"/>
    <rect y="24" width="1000" height="10" fill="url(#sec1Grad)"/>

    <circle cx="22" cy="17" r="10" fill="#ffffff"/>
    <text x="22" y="21" class="text-flow-num" fill="#004987" text-anchor="middle">1</text>
    <text x="40" y="21" class="text-header-box">COMPONENTE 1: CSIRT-ULPIANO &amp; CENTRO DE RESPUESTA A INCIDENTES</text>
    <text x="980" y="21" class="text-tag" fill="#d9e8f6" text-anchor="end">Defensa Perimetral 24/7</text>

    <!-- 4 Sub-boxes in 2x2 Grid -->
    <g transform="translate(14, 46)">
      <!-- Box 1.1 -->
      <g transform="translate(0, 0)">
        <rect x="0" y="0" width="476" height="128" rx="6" fill="#ffffff" stroke="#cfd4dc" stroke-width="1"/>
        <rect x="0" y="0" width="4" height="128" rx="2" fill="#1a5b8c"/>
        <text x="14" y="22" class="text-item-title" fill="#004987">CSIRT-Ulpiano Sectorial (Art. 8)</text>
        <text x="14" y="42" class="text-item-desc">• Centro de Respuesta a Incidentes para el sistema de justicia.</text>
        <text x="14" y="60" class="text-item-desc">• Protección ininterrumpida de causas y fallos telemáticos.</text>
        <text x="14" y="78" class="text-item-desc">• Alertas tempranas ante ataques DDoS o malware judicial.</text>
        <rect x="14" y="96" width="448" height="22" rx="3" fill="#eff6fb"/>
        <text x="238" y="111" class="text-tag" fill="#004987" text-anchor="middle">Monitoreo SIEM y SOC Activo</text>
      </g>

      <!-- Box 1.2 -->
      <g transform="translate(496, 0)">
        <rect x="0" y="0" width="476" height="128" rx="6" fill="#ffffff" stroke="#cfd4dc" stroke-width="1"/>
        <rect x="0" y="0" width="4" height="128" rx="2" fill="#1a5b8c"/>
        <text x="14" y="22" class="text-item-title" fill="#004987">Taxonomía de Incidentes Judiciales</text>
        <text x="14" y="42" class="text-item-desc">• Clasificación por niveles de severidad en tribunales.</text>
        <text x="14" y="60" class="text-item-desc">• Protocolos de contención inmediata y aislamiento.</text>
        <text x="14" y="78" class="text-item-desc">• Notificación obligatoria de incidentes críticos en 24h.</text>
        <rect x="14" y="96" width="448" height="22" rx="3" fill="#eff6fb"/>
        <text x="238" y="111" class="text-tag" fill="#004987" text-anchor="middle">Estándar: ISO/IEC 27035-1</text>
      </g>

      <!-- Box 1.3 -->
      <g transform="translate(0, 140)">
        <rect x="0" y="0" width="476" height="128" rx="6" fill="#ffffff" stroke="#cfd4dc" stroke-width="1"/>
        <rect x="0" y="0" width="4" height="128" rx="2" fill="#1a5b8c"/>
        <text x="14" y="22" class="text-item-title" fill="#004987">Zero Trust en Sedes Judiciales</text>
        <text x="14" y="42" class="text-item-desc">• Doble factor de autenticación biométrico/criptográfico.</text>
        <text x="14" y="60" class="text-item-desc">• Segmentación de redes de sustanciación y deliberación.</text>
        <text x="14" y="78" class="text-item-desc">• Cifrado de extremo a extremo en audiencias virtuales.</text>
        <rect x="14" y="96" width="448" height="22" rx="3" fill="#eff6fb"/>
        <text x="238" y="111" class="text-tag" fill="#004987" text-anchor="middle">NIST SP 800-207 Zero Trust</text>
      </g>

      <!-- Box 1.4 -->
      <g transform="translate(496, 140)">
        <rect x="0" y="0" width="476" height="128" rx="6" fill="#ffffff" stroke="#cfd4dc" stroke-width="1"/>
        <rect x="0" y="0" width="4" height="128" rx="2" fill="#1a5b8c"/>
        <text x="14" y="22" class="text-item-title" fill="#004987">Continuidad de Operaciones Judiciales</text>
        <text x="14" y="42" class="text-item-desc">• Despacho urgente garantizado ante caídas de red.</text>
        <text x="14" y="60" class="text-item-desc">• Prioridad en flagrancias y amparos constitucionales.</text>
        <text x="14" y="78" class="text-item-desc">• Respaldo inmutable geodistribuido en bóvedas WORM.</text>
        <rect x="14" y="96" width="448" height="22" rx="3" fill="#eff6fb"/>
        <text x="238" y="111" class="text-tag" fill="#004987" text-anchor="middle">ISO 22301 Continuidad</text>
      </g>
    </g>
  </g>

  <!-- Flow Arrow 1 to 2 -->
  <path d="M 540 454 L 540 476" class="flow-arrow-down" marker-end="url(#arrow-down-blue)"/>

  <!-- ================= 3. BLOQUE 2: CADENA DE CUSTODIA FORENSE ================= -->
  <g transform="translate(40, 478)">
    <rect x="0" y="0" width="1000" height="330" rx="8" fill="#f8fafc" stroke="#0050a0" stroke-width="2" filter="url(#shadow-1)"/>
    <rect x="0" y="0" width="1000" height="34" rx="8" fill="url(#sec2Grad)"/>
    <rect y="24" width="1000" height="10" fill="url(#sec2Grad)"/>

    <circle cx="22" cy="17" r="10" fill="#ffffff"/>
    <text x="22" y="21" class="text-flow-num" fill="#0050a0" text-anchor="middle">2</text>
    <text x="40" y="21" class="text-header-box">COMPONENTE 2: CADENA DE CUSTODIA DIGITAL (ISO/IEC 27037)</text>
    <text x="980" y="21" class="text-tag" fill="#ffffff" text-anchor="end">Inmutabilidad Probatoria</text>

    <!-- 4 Sub-boxes in 2x2 Grid -->
    <g transform="translate(14, 46)">
      <!-- Box 2.1 -->
      <g transform="translate(0, 0)">
        <rect x="0" y="0" width="476" height="128" rx="6" fill="#ffffff" stroke="#a3caf5" stroke-width="1.2"/>
        <rect x="0" y="0" width="4" height="128" rx="2" fill="#0050a0"/>
        <text x="14" y="22" class="text-item-title" fill="#003366">Sellado de Tiempo Confiable (TSA)</text>
        <text x="14" y="42" class="text-item-desc">• Certificación de fecha y hora legal inmutable.</text>
        <text x="14" y="60" class="text-item-desc">• Bloqueo algorítmico de adulteraciones cronológicas.</text>
        <text x="14" y="78" class="text-item-desc">• Sellado bajo estándar RFC 3161 homologado por SUSCERTE.</text>
        <rect x="14" y="96" width="448" height="22" rx="3" fill="#e0edfb"/>
        <text x="238" y="111" class="text-tag" fill="#003366" text-anchor="middle">RFC 3161 Time-Stamping Protocol</text>
      </g>

      <!-- Box 2.2 -->
      <g transform="translate(496, 0)">
        <rect x="0" y="0" width="476" height="128" rx="6" fill="#ffffff" stroke="#a3caf5" stroke-width="1.2"/>
        <rect x="0" y="0" width="4" height="128" rx="2" fill="#0050a0"/>
        <text x="14" y="22" class="text-item-title" fill="#003366">Preservación Forense de Evidencia Digital</text>
        <text x="14" y="42" class="text-item-desc">• Protocolo de adquisición, recolección y aseguramiento.</text>
        <text x="14" y="60" class="text-item-desc">• Generación de Hash SHA3-512 en cada actuación.</text>
        <text x="14" y="78" class="text-item-desc">• Manual Único de Cadena de Custodia de Evidencias (2017).</text>
        <rect x="14" y="96" width="448" height="22" rx="3" fill="#e0edfb"/>
        <text x="238" y="111" class="text-tag" fill="#003366" text-anchor="middle">ISO/IEC 27037 Evidencia Digital</text>
      </g>

      <!-- Box 2.3 -->
      <g transform="translate(0, 140)">
        <rect x="0" y="0" width="476" height="128" rx="6" fill="#ffffff" stroke="#a3caf5" stroke-width="1.2"/>
        <rect x="0" y="0" width="4" height="128" rx="2" fill="#0050a0"/>
        <text x="14" y="22" class="text-item-title" fill="#003366">Bóveda Inmutable WORM</text>
        <text x="14" y="42" class="text-item-desc">• Almacenamiento Write-Once Read-Many inmodificable.</text>
        <text x="14" y="60" class="text-item-desc">• Cifrado AES-256 en reposo para causas reservadas.</text>
        <text x="14" y="78" class="text-item-desc">• Registro duplicado de auditoría forense inalterable.</text>
        <rect x="14" y="96" width="448" height="22" rx="3" fill="#e0edfb"/>
        <text x="238" y="111" class="text-tag" fill="#003366" text-anchor="middle">FIPS 140-2 Level 3 Hardware Security</text>
      </g>

      <!-- Box 2.4 -->
      <g transform="translate(496, 140)">
        <rect x="0" y="0" width="476" height="128" rx="6" fill="#ffffff" stroke="#a3caf5" stroke-width="1.2"/>
        <rect x="0" y="0" width="4" height="128" rx="2" fill="#0050a0"/>
        <text x="14" y="22" class="text-item-title" fill="#003366">Análisis Forense e Interpretación</text>
        <text x="14" y="42" class="text-item-desc">• Peritaje informático según la Ley de Delitos Informáticos.</text>
        <text x="14" y="60" class="text-item-desc">• Admisibilidad de pruebas electrónicas en sede penal.</text>
        <text x="14" y="78" class="text-item-desc">• Dictamen de inmutabilidad con validez plena en juicio.</text>
        <rect x="14" y="96" width="448" height="22" rx="3" fill="#e0edfb"/>
        <text x="238" y="111" class="text-tag" fill="#003366" text-anchor="middle">ISO/IEC 27042 Análisis Pericial</text>
      </g>
    </g>
  </g>

  <!-- Flow Arrow 2 to 3 -->
  <path d="M 540 808 L 540 830" class="flow-arrow-down" stroke="#2e8540" marker-end="url(#arrow-down-green)"/>

  <!-- ================= 4. BLOQUE 3: INTEGRIDAD PROCESAL ================= -->
  <g transform="translate(40, 832)">
    <rect x="0" y="0" width="1000" height="330" rx="8" fill="#f8fafc" stroke="#98cca3" stroke-width="1.5" filter="url(#shadow-1)"/>
    <rect x="0" y="0" width="1000" height="34" rx="8" fill="url(#sec3Grad)"/>
    <rect y="24" width="1000" height="10" fill="url(#sec3Grad)"/>

    <circle cx="22" cy="17" r="10" fill="#ffffff"/>
    <text x="22" y="21" class="text-flow-num" fill="#154721" text-anchor="middle">3</text>
    <text x="40" y="21" class="text-header-box">COMPONENTE 3: INTEGRIDAD ALGORÍTMICA Y CONTROL ANTICORRUPCIÓN</text>
    <text x="980" y="21" class="text-tag" fill="#eaf4ec" text-anchor="end">Transparencia Judicial</text>

    <!-- 4 Sub-boxes in 2x2 Grid -->
    <g transform="translate(14, 46)">
      <!-- Box 3.1 -->
      <g transform="translate(0, 0)">
        <rect x="0" y="0" width="476" height="128" rx="6" fill="#ffffff" stroke="#cde5d2" stroke-width="1"/>
        <rect x="0" y="0" width="4" height="128" rx="2" fill="#2e8540"/>
        <text x="14" y="22" class="text-item-title" fill="#154721">Sorteo Automatizado de Causas</text>
        <text x="14" y="42" class="text-item-desc">• Algoritmo determinístico auditado y transparente.</text>
        <text x="14" y="60" class="text-item-desc">• Asignación de ponencias sin discrecionalidad humana.</text>
        <text x="14" y="78" class="text-item-desc">• Registro inmutable del sorteo en la base de datos.</text>
        <rect x="14" y="96" width="448" height="22" rx="3" fill="#eaf4ec"/>
        <text x="238" y="111" class="text-tag" fill="#154721" text-anchor="middle">Principio: Imparcialidad Algorítmica</text>
      </g>

      <!-- Box 3.2 -->
      <g transform="translate(496, 0)">
        <rect x="0" y="0" width="476" height="128" rx="6" fill="#ffffff" stroke="#cde5d2" stroke-width="1"/>
        <rect x="0" y="0" width="4" height="128" rx="2" fill="#2e8540"/>
        <text x="14" y="22" class="text-item-title" fill="#154721">Segregación "Cuatro Ojos" Digital</text>
        <text x="14" y="42" class="text-item-desc">• Control dual en la expedición de providencias.</text>
        <text x="14" y="60" class="text-item-desc">• Firma conjunta obligatoria de Juez y Secretario.</text>
        <text x="14" y="78" class="text-item-desc">• Prohibición de resoluciones unilaterales no auditadas.</text>
        <rect x="14" y="96" width="448" height="22" rx="3" fill="#eaf4ec"/>
        <text x="238" y="111" class="text-tag" fill="#154721" text-anchor="middle">Principio: Integridad de Función Pública</text>
      </g>

      <!-- Box 3.3 -->
      <g transform="translate(0, 140)">
        <rect x="0" y="0" width="476" height="128" rx="6" fill="#ffffff" stroke="#cde5d2" stroke-width="1"/>
        <rect x="0" y="0" width="4" height="128" rx="2" fill="#2e8540"/>
        <text x="14" y="22" class="text-item-title" fill="#154721">IA Ética con Supervisión Humana</text>
        <text x="14" y="42" class="text-item-desc">• Prohibición de fallos 100% automatizados por IA.</text>
        <text x="14" y="60" class="text-item-desc">• Asistencia algorítmica subordinada al criterio del Juez.</text>
        <text x="14" y="78" class="text-item-desc">• Explicabilidad técnica de cada dictamen procesal.</text>
        <rect x="14" y="96" width="448" height="22" rx="3" fill="#eaf4ec"/>
        <text x="238" y="111" class="text-tag" fill="#154721" text-anchor="middle">ISO/IEC 42001 IA Ética</text>
      </g>

      <!-- Box 3.4 -->
      <g transform="translate(496, 140)">
        <rect x="0" y="0" width="476" height="128" rx="6" fill="#ffffff" stroke="#cde5d2" stroke-width="1"/>
        <rect x="0" y="0" width="4" height="128" rx="2" fill="#2e8540"/>
        <text x="14" y="22" class="text-item-title" fill="#154721">Alertas Contra el Retardo Procesal</text>
        <text x="14" y="42" class="text-item-desc">• Monitoreo automático de plazos de ley procesales.</text>
        <text x="14" y="60" class="text-item-desc">• Notificación de demoras a la Inspectoría de Tribunales.</text>
        <text x="14" y="78" class="text-item-desc">• Celeridad procesal garantizada por la Constitución.</text>
        <rect x="14" y="96" width="448" height="22" rx="3" fill="#eaf4ec"/>
        <text x="238" y="111" class="text-tag" fill="#154721" text-anchor="middle">CRBV Art. 26 Tutela Efectiva</text>
      </g>
    </g>
  </g>

  <!-- Flow Arrow 3 to 4 -->
  <path d="M 540 1162 L 540 1184" class="flow-arrow-down" stroke="#8c3b00" marker-end="url(#arrow-down-blue)"/>

  <!-- ================= 5. BLOQUE 4: MARCO NORMATIVO ================= -->
  <g transform="translate(40, 1186)">
    <rect x="0" y="0" width="1000" height="330" rx="8" fill="#f8fafc" stroke="#cfd4dc" stroke-width="1.5" filter="url(#shadow-1)"/>
    <rect x="0" y="0" width="1000" height="34" rx="8" fill="url(#sec4Grad)"/>
    <rect y="24" width="1000" height="10" fill="url(#sec4Grad)"/>

    <circle cx="22" cy="17" r="10" fill="#ffffff"/>
    <text x="22" y="21" class="text-flow-num" fill="#8c3b00" text-anchor="middle">4</text>
    <text x="40" y="21" class="text-header-box">MARCO JURÍDICO VENEZOLANO DE CIBERSEGURIDAD JUDICIAL</text>
    <text x="980" y="21" class="text-tag" fill="#fef6e7" text-anchor="end">Leyes Nacionales</text>

    <!-- 4 Sub-boxes in 2x2 Grid -->
    <g transform="translate(14, 46)">
      <!-- Box 4.1 -->
      <g transform="translate(0, 0)">
        <rect x="0" y="0" width="476" height="128" rx="6" fill="#ffffff" stroke="#cfd4dc" stroke-width="1"/>
        <rect x="0" y="0" width="4" height="128" rx="2" fill="#df7e00"/>
        <text x="14" y="22" class="text-item-title" fill="#8c3b00">Constitución de la República (CRBV)</text>
        <text x="14" y="42" class="text-item-desc">• Art. 26: Tutela judicial efectiva sin dilaciones indebidas.</text>
        <text x="14" y="60" class="text-item-desc">• Art. 110: Interés público en ciencia y tecnología.</text>
        <text x="14" y="78" class="text-item-desc">• Art. 257: El proceso como instrumento de la justicia.</text>
        <rect x="14" y="96" width="448" height="22" rx="3" fill="#fef6e7"/>
        <text x="238" y="111" class="text-tag" fill="#8c3b00" text-anchor="middle">Gaceta Oficial N° 36.860</text>
      </g>

      <!-- Box 4.2 -->
      <g transform="translate(496, 0)">
        <rect x="0" y="0" width="476" height="128" rx="6" fill="#ffffff" stroke="#cfd4dc" stroke-width="1"/>
        <rect x="0" y="0" width="4" height="128" rx="2" fill="#df7e00"/>
        <text x="14" y="22" class="text-item-title" fill="#8c3b00">Ley de Mensajes y Firmas (LMDyFE)</text>
        <text x="14" y="42" class="text-item-desc">• Art. 4: Eficacia probatoria del documento digital.</text>
        <text x="14" y="60" class="text-item-desc">• Art. 6: Validez plena de la firma electrónica.</text>
        <text x="14" y="78" class="text-item-desc">• Art. 18: Presunción legal de firma certificada SUSCERTE.</text>
        <rect x="14" y="96" width="448" height="22" rx="3" fill="#fef6e7"/>
        <text x="238" y="111" class="text-tag" fill="#8c3b00" text-anchor="middle">Gaceta Oficial N° 37.148</text>
      </g>

      <!-- Box 4.3 -->
      <g transform="translate(0, 140)">
        <rect x="0" y="0" width="476" height="128" rx="6" fill="#ffffff" stroke="#cfd4dc" stroke-width="1"/>
        <rect x="0" y="0" width="4" height="128" rx="2" fill="#df7e00"/>
        <text x="14" y="22" class="text-item-title" fill="#8c3b00">Ley de Infogobierno</text>
        <text x="14" y="42" class="text-item-desc">• Art. 13: Uso imperativo de Software Libre / Linux.</text>
        <text x="14" y="60" class="text-item-desc">• Art. 23: Obligatoriedad de firma digital certificada.</text>
        <text x="14" y="78" class="text-item-desc">• Art. 27: Mecanismo de cotejo de copias (CSV).</text>
        <rect x="14" y="96" width="448" height="22" rx="3" fill="#fef6e7"/>
        <text x="238" y="111" class="text-tag" fill="#8c3b00" text-anchor="middle">Gaceta Oficial N° 40.274</text>
      </g>

      <!-- Box 4.4 -->
      <g transform="translate(496, 140)">
        <rect x="0" y="0" width="476" height="128" rx="6" fill="#ffffff" stroke="#cfd4dc" stroke-width="1"/>
        <rect x="0" y="0" width="4" height="128" rx="2" fill="#df7e00"/>
        <text x="14" y="22" class="text-item-title" fill="#8c3b00">Ley Contra Delitos Informáticos</text>
        <text x="14" y="42" class="text-item-desc">• Art. 6: Sanción por acceso indebido a sistemas.</text>
        <text x="14" y="60" class="text-item-desc">• Art. 7: Sabotaje o alteración de datos judiciales.</text>
        <text x="14" y="78" class="text-item-desc">• Art. 12: Falsificación de documentos digitales.</text>
        <rect x="14" y="96" width="448" height="22" rx="3" fill="#fef6e7"/>
        <text x="238" y="111" class="text-tag" fill="#8c3b00" text-anchor="middle">Gaceta Oficial N° 37.313</text>
      </g>
    </g>
  </g>

  <!-- ================= 6. WATERMARK FOOTER ================= -->
  <g transform="translate(40, 1535)">
    <rect width="1000" height="75" rx="8" fill="#f8fafc" stroke="#cbd5e1" stroke-width="1"/>
    <text x="20" y="32" font-family="'Public Sans', sans-serif" font-size="10.5px" fill="#5c6b7e">
      Ulpiano Chief Compliance Officer • <tspan font-weight="700" fill="#0050a0">Ciberseguridad Integración V-1.0 Base</tspan> • Autor: <tspan font-weight="700" fill="#0050a0">Jull Ortiz (sha256.us ↗)</tspan> • Formato Hoja Folio Vertical
    </text>
    <text x="980" y="32" font-family="'Roboto Mono', monospace" font-size="9.8px" fill="#5c6b7e" text-anchor="end">
      ISO 27037 • LMDyFE G.O. 37.148 • Infogobierno G.O. 40.274
    </text>
    <text x="20" y="54" font-family="'Public Sans', sans-serif" font-size="9.5px" fill="#94a3b8">
      Design System USWDS 3.0 • Section 508 / WCAG 2.1 AAA • Tokens Semánticos Light • Hoja Folio Oficial (8.5" × 13")
    </text>
    <text x="980" y="54" font-family="'Public Sans', sans-serif" font-size="9.5px" fill="#0050a0" text-anchor="end" font-weight="700">
      SISTEMA JUDICIAL DIGITAL BASE
    </text>
  </g>
</svg>
