<?xml version="1.0" encoding="UTF-8"?>
<svg xmlns="http://www.w3.org/2000/svg" viewBox="0 0 1080 1650" width="100%" height="100%" style="max-width: 100%; height: auto; display: block; margin: 0 auto;">
  <defs>
    <style><![CDATA[
      @import url('https://fonts.googleapis.com/css2?family=Material+Symbols+Outlined:opsz,wght,FILL,GRAD@24,400,0,0');
      @import url('https://fonts.googleapis.com/css2?family=Public+Sans:wght@400;500;600;700;800&family=Roboto+Mono:wght@400;600;700&display=swap');

      .font-sans { font-family: 'Public Sans', -apple-system, BlinkMacSystemFont, 'Segoe UI', Roboto, Arial, sans-serif; }
      .font-mono { font-family: 'Roboto Mono', 'SFMono-Regular', Consolas, Monaco, monospace; }

      .text-title { font-family: 'Public Sans', sans-serif; font-weight: 800; font-size: 15px; fill: #ffffff; letter-spacing: -0.01em; }
      .text-subtitle { font-family: 'Public Sans', sans-serif; font-weight: 500; font-size: 10.5px; fill: #f1f5f9; }
      .text-subcite { font-family: 'Public Sans', sans-serif; font-weight: 600; font-size: 9.5px; fill: #fde047; }
      .text-header-box { font-family: 'Public Sans', sans-serif; font-weight: 700; font-size: 11.5px; fill: #ffffff; letter-spacing: 0.02em; }
      .text-tag { font-family: 'Public Sans', sans-serif; font-weight: 700; font-size: 9.2px; }

      .text-item-title { font-family: 'Public Sans', sans-serif; font-weight: 700; font-size: 10.8px; fill: #162e51; }
      .text-item-desc { font-family: 'Public Sans', sans-serif; font-weight: 400; font-size: 9.8px; fill: #2d3748; line-height: 1.35; }
      .text-item-sub { font-family: 'Public Sans', sans-serif; font-weight: 400; font-size: 9.2px; fill: #5c6b7e; }

      .text-flow-num { font-family: 'Public Sans', sans-serif; font-weight: 800; font-size: 10.5px; fill: #ffffff; }
      .flow-arrow-down { stroke: #b50909; stroke-width: 2.2; fill: none; }
    ]]></style>

    <filter id="nat-shadow-1" x="-4%" y="-4%" width="108%" height="108%">
      <feDropShadow dx="0" dy="2" stdDeviation="3" flood-color="#000000" flood-opacity="0.08"/>
    </filter>
    <filter id="nat-shadow-2" x="-5%" y="-5%" width="110%" height="110%">
      <feDropShadow dx="0" dy="3" stdDeviation="6" flood-color="#000000" flood-opacity="0.12"/>
    </filter>

    <linearGradient id="natHeaderGrad" x1="0%" y1="0%" x2="100%" y2="0%">
      <stop offset="0%" stop-color="#2a0505"/>
      <stop offset="50%" stop-color="#4a0e0e"/>
      <stop offset="100%" stop-color="#731414"/>
    </linearGradient>

    <linearGradient id="pilar1Grad" x1="0%" y1="0%" x2="100%" y2="0%">
      <stop offset="0%" stop-color="#8b0000"/>
      <stop offset="100%" stop-color="#b50909"/>
    </linearGradient>
    <linearGradient id="pilar2Grad" x1="0%" y1="0%" x2="100%" y2="0%">
      <stop offset="0%" stop-color="#004987"/>
      <stop offset="100%" stop-color="#0076d6"/>
    </linearGradient>
    <linearGradient id="pilar3Grad" x1="0%" y1="0%" x2="100%" y2="0%">
      <stop offset="0%" stop-color="#154721"/>
      <stop offset="100%" stop-color="#2e8540"/>
    </linearGradient>
    <linearGradient id="pilar4Grad" x1="0%" y1="0%" x2="100%" y2="0%">
      <stop offset="0%" stop-color="#8c3b00"/>
      <stop offset="100%" stop-color="#df7e00"/>
    </linearGradient>

    <marker id="arrow-down-red" viewBox="0 0 10 10" refX="5" refY="6" markerWidth="6" markerHeight="6" orient="auto">
      <path d="M 1 0 L 5 10 L 9 0 z" fill="#b50909"/>
    </marker>
    <marker id="arrow-down-blue" viewBox="0 0 10 10" refX="5" refY="6" markerWidth="6" markerHeight="6" orient="auto">
      <path d="M 1 0 L 5 10 L 9 0 z" fill="#0076d6"/>
    </marker>
    <marker id="arrow-down-green" viewBox="0 0 10 10" refX="5" refY="6" markerWidth="6" markerHeight="6" orient="auto">
      <path d="M 1 0 L 5 10 L 9 0 z" fill="#2e8540"/>
    </marker>

    <pattern id="uswds-nat-grid" width="24" height="24" patternUnits="userSpaceOnUse">
      <path d="M 24 0 L 0 0 0 24" fill="none" stroke="#e2e8f0" stroke-width="0.75"/>
    </pattern>
  </defs>

  <!-- CANVAS BACKGROUND (HOJA FOLIO VERTICAL 1080 x 1650) -->
  <rect width="1080" height="1650" fill="#ffffff"/>
  <rect width="1080" height="1650" fill="url(#uswds-nat-grid)" opacity="0.65"/>

  <!-- ================= 1. HEADER HERO (OPTIMIZADO) ================= -->
  <g transform="translate(40, 16)">
    <rect x="0" y="0" width="1000" height="96" rx="8" fill="url(#natHeaderGrad)" stroke="#991b1b" stroke-width="1.2" filter="url(#nat-shadow-2)"/>
    <rect x="0" y="0" width="7" height="96" rx="3.5" fill="#facc15"/>

    <!-- Left Icon -->
    <!-- Title & Subtitle (No icon in top header, full width layout from x=24) -->
    <g transform="translate(24, 0)">
      <text x="0" y="32" class="text-title">MARCO LEGAL NACIONAL &amp; JERARQUÍA NORMATIVA V-1.2</text>
      <text x="0" y="53" class="text-subtitle">
        Jerarquía Constitucional: Art. 203 CRBV (TSJ 0406/2026), Leyes Orgánicas, Doctrina y Sanciones
      </text>
      <text x="0" y="74" class="text-subcite">
        Fundamentación: Bloque Constitucional • Ley de Infogobierno • LMDyFE • LOCOTA 2026 • Delitos Inf.
      </text>
    </g>

    <!-- Right Badges (Bounded from x=755 to x=985 - Width 230px, HIGH CONTRAST) -->
    <g transform="translate(755, 16)">
      <rect x="0" y="0" width="230" height="28" rx="5" fill="#8b0000" stroke="#fca5a5" stroke-width="1"/>
      <text x="115" y="18" class="text-tag" fill="#ffffff" text-anchor="middle">MARCO NACIONAL V-1.2</text>

      <rect x="0" y="36" width="230" height="28" rx="5" fill="#0f172a" stroke="#475569" stroke-width="1"/>
      <text x="115" y="54" class="text-tag" fill="#38bdf8" text-anchor="middle">HOJA FOLIO VERTICAL</text>
    </g>
  </g>

  <!-- ================= 2. PILAR 1: BLOQUE CONSTITUCIONAL ================= -->
  <g transform="translate(40, 124)">
    <rect x="0" y="0" width="1000" height="330" rx="8" fill="#f8fafc" stroke="#e79c9c" stroke-width="1.5" filter="url(#nat-shadow-1)"/>
    <rect x="0" y="0" width="1000" height="34" rx="8" fill="url(#pilar1Grad)"/>
    <rect y="24" width="1000" height="10" fill="url(#pilar1Grad)"/>

    <circle cx="22" cy="17" r="10" fill="#ffffff"/>
    <text x="22" y="21" class="text-flow-num" fill="#8b0000" text-anchor="middle">1</text>
    <text x="40" y="21" class="text-header-box">PILAR 1: BLOQUE CONSTITUCIONAL DE LA REPÚBLICA (CRBV 1999)</text>
    <text x="980" y="21" class="text-tag" fill="#fee2e2" text-anchor="end">Supremacía Constitucional</text>

    <!-- 4 Sub-boxes in 2x2 Grid -->
    <g transform="translate(14, 46)">
      <!-- Box 1.1 -->
      <g transform="translate(0, 0)">
        <rect x="0" y="0" width="476" height="128" rx="6" fill="#ffffff" stroke="#cfd4dc" stroke-width="1"/>
        <rect x="0" y="0" width="4" height="128" rx="2" fill="#b50909"/>
        <text x="14" y="22" class="text-item-title" fill="#8b0000">Art. 203 CRBV: Rango de Ley Orgánica</text>
        <text x="14" y="42" class="text-item-desc">• Fundamenta la supremacía de la Ley de Ciberseguridad.</text>
        <text x="14" y="60" class="text-item-desc">• Prevalece sobre cualquier ley ordinaria del Estado.</text>
        <text x="14" y="78" class="text-item-desc">• Vinculante para los Poderes Judicial, Ejecutivo y Ciudadano.</text>
        <rect x="14" y="96" width="448" height="22" rx="3" fill="#f9eded"/>
        <text x="238" y="111" class="text-tag" fill="#b50909" text-anchor="middle">Núcleo Jurídico de Supremacía Orgánica</text>
      </g>

      <!-- Box 1.2 -->
      <g transform="translate(496, 0)">
        <rect x="0" y="0" width="476" height="128" rx="6" fill="#ffffff" stroke="#cfd4dc" stroke-width="1"/>
        <rect x="0" y="0" width="4" height="128" rx="2" fill="#b50909"/>
        <text x="14" y="22" class="text-item-title" fill="#8b0000">Arts. 26 &amp; 49: Tutela Judicial &amp; Debido Proceso</text>
        <text x="14" y="42" class="text-item-desc">• Justicia gratuita, accesible y sin dilaciones indebidas.</text>
        <text x="14" y="60" class="text-item-desc">• Prohibición de indefensión procesal por fallas técnicas.</text>
        <text x="14" y="78" class="text-item-desc">• Doble instancia obligatoria y contradicción de pruebas IA.</text>
        <rect x="14" y="96" width="448" height="22" rx="3" fill="#f9eded"/>
        <text x="238" y="111" class="text-tag" fill="#b50909" text-anchor="middle">Garantías Constitucionales del Proceso Digital</text>
      </g>

      <!-- Box 1.3 -->
      <g transform="translate(0, 140)">
        <rect x="0" y="0" width="476" height="128" rx="6" fill="#ffffff" stroke="#cfd4dc" stroke-width="1"/>
        <rect x="0" y="0" width="4" height="128" rx="2" fill="#b50909"/>
        <text x="14" y="22" class="text-item-title" fill="#8b0000">Arts. 28 &amp; 110: Habeas Data &amp; Interés Público TIC</text>
        <text x="14" y="42" class="text-item-desc">• Derecho a la autodeterminación informativa y privacidad.</text>
        <text x="14" y="60" class="text-item-desc">• TIC declaradas de interés público estratégico nacional.</text>
        <text x="14" y="78" class="text-item-desc">• Soberanía tecnológica y seguridad de expedientes públicos.</text>
        <rect x="14" y="96" width="448" height="22" rx="3" fill="#f9eded"/>
        <text x="238" y="111" class="text-tag" fill="#b50909" text-anchor="middle">Marco de Interés Público y Soberanía</text>
      </g>

      <!-- Box 1.4 -->
      <g transform="translate(496, 140)">
        <rect x="0" y="0" width="476" height="128" rx="6" fill="#ffffff" stroke="#cfd4dc" stroke-width="1"/>
        <rect x="0" y="0" width="4" height="128" rx="2" fill="#b50909"/>
        <text x="14" y="22" class="text-item-title" fill="#8b0000">Arts. 143 &amp; 257: Transparencia &amp; Cero Formalismos</text>
        <text x="14" y="42" class="text-item-desc">• Derecho ciudadano a ser informado y consultar registros.</text>
        <text x="14" y="60" class="text-item-desc">• El proceso es instrumento de justicia, no fin en sí mismo.</text>
        <text x="14" y="78" class="text-item-desc">• Eficacia probatoria plena de los medios electrónicos.</text>
        <rect x="14" y="96" width="448" height="22" rx="3" fill="#f9eded"/>
        <text x="238" y="111" class="text-tag" fill="#b50909" text-anchor="middle">Principios de Publicidad y Antiformalismo</text>
      </g>
    </g>
  </g>

  <!-- Flow Arrow 1 to 2 -->
  <path d="M 540 454 L 540 476" class="flow-arrow-down" marker-end="url(#arrow-down-red)"/>

  <!-- ================= 3. PILAR 2: LEYES ORGÁNICAS Y ESPECIALES ================= -->
  <g transform="translate(40, 478)">
    <rect x="0" y="0" width="1000" height="330" rx="8" fill="#f8fafc" stroke="#aacdec" stroke-width="1.5" filter="url(#nat-shadow-1)"/>
    <rect x="0" y="0" width="1000" height="34" rx="8" fill="url(#pilar2Grad)"/>
    <rect y="24" width="1000" height="10" fill="url(#pilar2Grad)"/>

    <circle cx="22" cy="17" r="10" fill="#ffffff"/>
    <text x="22" y="21" class="text-flow-num" fill="#004987" text-anchor="middle">2</text>
    <text x="40" y="21" class="text-header-box">PILAR 2: MARCO DE LEYES ORGÁNICAS, ESPECIALES Y REGIMEN INFOGOBIERNO</text>
    <text x="980" y="21" class="text-tag" fill="#d9e8f6" text-anchor="end">Leyes Nacionales Clave</text>

    <!-- 4 Sub-boxes in 2x2 Grid -->
    <g transform="translate(14, 46)">
      <!-- Box 2.1 -->
      <g transform="translate(0, 0)">
        <rect x="0" y="0" width="476" height="128" rx="6" fill="#ffffff" stroke="#cfd4dc" stroke-width="1"/>
        <rect x="0" y="0" width="4" height="128" rx="2" fill="#0050a0"/>
        <text x="14" y="22" class="text-item-title" fill="#003366">Ley de Infogobierno (G.O. N° 40.274)</text>
        <text x="14" y="42" class="text-item-desc">• Art. 13: Uso imperativo de Software Libre y Linux.</text>
        <text x="14" y="60" class="text-item-desc">• Art. 23: Obligatoriedad de firma digital certificada.</text>
        <text x="14" y="78" class="text-item-desc">• Art. 27: Mecanismo automatizado de cotejo (CSV).</text>
        <rect x="14" y="96" width="448" height="22" rx="3" fill="#e0edfb"/>
        <text x="238" y="111" class="text-tag" fill="#003366" text-anchor="middle">Base Jurídica de la Transformación Digital</text>
      </g>

      <!-- Box 2.2 -->
      <g transform="translate(496, 0)">
        <rect x="0" y="0" width="476" height="128" rx="6" fill="#ffffff" stroke="#cfd4dc" stroke-width="1"/>
        <rect x="0" y="0" width="4" height="128" rx="2" fill="#0050a0"/>
        <text x="14" y="22" class="text-item-title" fill="#003366">Ley de Mensajes de Datos y Firmas (LMDyFE)</text>
        <text x="14" y="42" class="text-item-desc">• Art. 4: Plena eficacia probatoria del documento digital.</text>
        <text x="14" y="60" class="text-item-desc">• Art. 7: Principio de integridad e inalterabilidad.</text>
        <text x="14" y="78" class="text-item-desc">• Art. 18: Presunción legal de firma certificada SUSCERTE.</text>
        <rect x="14" y="96" width="448" height="22" rx="3" fill="#e0edfb"/>
        <text x="238" y="111" class="text-tag" fill="#003366" text-anchor="middle">Equivalencia Funcional con Firma Autógrafa</text>
      </g>

      <!-- Box 2.3 -->
      <g transform="translate(0, 140)">
        <rect x="0" y="0" width="476" height="128" rx="6" fill="#ffffff" stroke="#cfd4dc" stroke-width="1"/>
        <rect x="0" y="0" width="4" height="128" rx="2" fill="#0050a0"/>
        <text x="14" y="22" class="text-item-title" fill="#003366">Ley Contra los Delitos Informáticos (G.O. 37.313)</text>
        <text x="14" y="42" class="text-item-desc">• Art. 6 &amp; 7: Penas de prisión por acceso indebido y sabotaje.</text>
        <text x="14" y="60" class="text-item-desc">• Art. 12: Tipificación de falsificación de documentos digitales.</text>
        <text x="14" y="78" class="text-item-desc">• Protección reforzada para sistemas de justicia y Estado.</text>
        <rect x="14" y="96" width="448" height="22" rx="3" fill="#e0edfb"/>
        <text x="238" y="111" class="text-tag" fill="#003366" text-anchor="middle">Sanción Penal a la Manipulación Digital</text>
      </g>

      <!-- Box 2.4 -->
      <g transform="translate(496, 140)">
        <rect x="0" y="0" width="476" height="128" rx="6" fill="#ffffff" stroke="#cfd4dc" stroke-width="1"/>
        <rect x="0" y="0" width="4" height="128" rx="2" fill="#0050a0"/>
        <text x="14" y="22" class="text-item-title" fill="#003366">Ley LOCOTA 2026 &amp; Celeridad de Trámites</text>
        <text x="14" y="42" class="text-item-desc">• Interconexión con Unidades de Celeridad (Art. 11 LOCOTA).</text>
        <text x="14" y="60" class="text-item-desc">• Ventanillas únicas e interoperabilidad de expedientes.</text>
        <text x="14" y="78" class="text-item-desc">• Erradicación del retardo administrativo y judicial.</text>
        <rect x="14" y="96" width="448" height="22" rx="3" fill="#e0edfb"/>
        <text x="238" y="111" class="text-tag" fill="#003366" text-anchor="middle">Optimización y Celeridad Procesal</text>
      </g>
    </g>
  </g>

  <!-- Flow Arrow 2 to 3 -->
  <path d="M 540 808 L 540 830" class="flow-arrow-down" stroke="#0076d6" marker-end="url(#arrow-down-blue)"/>

  <!-- ================= 4. PILAR 3: DOCTRINA JUDICIAL Y RESOLUCIONES TSJ ================= -->
  <g transform="translate(40, 832)">
    <rect x="0" y="0" width="1000" height="330" rx="8" fill="#f8fafc" stroke="#99cda4" stroke-width="1.5" filter="url(#nat-shadow-1)"/>
    <rect x="0" y="0" width="1000" height="34" rx="8" fill="url(#pilar3Grad)"/>
    <rect y="24" width="1000" height="10" fill="url(#pilar3Grad)"/>

    <circle cx="22" cy="17" r="10" fill="#ffffff"/>
    <text x="22" y="21" class="text-flow-num" fill="#154721" text-anchor="middle">3</text>
    <text x="40" y="21" class="text-header-box">PILAR 3: DOCTRINA VINCULANTE TSJ &amp; RESOLUCIONES DE SALA PLENA</text>
    <text x="980" y="21" class="text-tag" fill="#eaf4ec" text-anchor="end">Jurisprudencia Vinculante</text>

    <!-- 4 Sub-boxes in 2x2 Grid -->
    <g transform="translate(14, 46)">
      <!-- Box 3.1 -->
      <g transform="translate(0, 0)">
        <rect x="0" y="0" width="476" height="128" rx="6" fill="#ffffff" stroke="#cfd4dc" stroke-width="1"/>
        <rect x="0" y="0" width="4" height="128" rx="2" fill="#2e8540"/>
        <text x="14" y="22" class="text-item-title" fill="#154721">Sentencia TSJ/SC N° 0406/2026</text>
        <text x="14" y="42" class="text-item-desc">• Doctrina constitucional vinculante sobre el Art. 203 CRBV.</text>
        <text x="14" y="60" class="text-item-desc">• Ratifica el carácter orgánico de las leyes de ciberseguridad.</text>
        <text x="14" y="78" class="text-item-desc">• Blindaje jerárquico ante pretensiones derogatorias ordinarias.</text>
        <rect x="14" y="96" width="448" height="22" rx="3" fill="#eaf4ec"/>
        <text x="238" y="111" class="text-tag" fill="#154721" text-anchor="middle">Doctrina Vinculante Sala Constitucional TSJ</text>
      </g>

      <!-- Box 3.2 -->
      <g transform="translate(496, 0)">
        <rect x="0" y="0" width="476" height="128" rx="6" fill="#ffffff" stroke="#cfd4dc" stroke-width="1"/>
        <rect x="0" y="0" width="4" height="128" rx="2" fill="#2e8540"/>
        <text x="14" y="22" class="text-item-title" fill="#154721">Resoluciones de Sala Plena TSJ (2020-2026)</text>
        <text x="14" y="42" class="text-item-desc">• Marco regulatorio del Expediente Judicial Digital.</text>
        <text x="14" y="60" class="text-item-desc">• Normas de tramitación telemática y citaciones electrónicas.</text>
        <text x="14" y="78" class="text-item-desc">• Validez plena de sentencias firmadas digitalmente.</text>
        <rect x="14" y="96" width="448" height="22" rx="3" fill="#eaf4ec"/>
        <text x="238" y="111" class="text-tag" fill="#154721" text-anchor="middle">Resolución N° 2021-0011 &amp; Análogas</text>
      </g>

      <!-- Box 3.3 -->
      <g transform="translate(0, 140)">
        <rect x="0" y="0" width="476" height="128" rx="6" fill="#ffffff" stroke="#cfd4dc" stroke-width="1"/>
        <rect x="0" y="0" width="4" height="128" rx="2" fill="#2e8540"/>
        <text x="14" y="22" class="text-item-title" fill="#154721">Directivas DINCIP &amp; DOVs (Art. 19-bis)</text>
        <text x="14" y="42" class="text-item-desc">• Actos administrativos de alcance general y cumplimiento forzoso.</text>
        <text x="14" y="60" class="text-item-desc">• Órdenes técnicas inmediatas para subsanar vulnerabilidades.</text>
        <text x="14" y="78" class="text-item-desc">• Plazo perentorio de 72 horas para neutralizar ciberriesgos.</text>
        <rect x="14" y="96" width="448" height="22" rx="3" fill="#eaf4ec"/>
        <text x="238" y="111" class="text-tag" fill="#154721" text-anchor="middle">Directivas Operativas Vinculantes</text>
      </g>

      <!-- Box 3.4 -->
      <g transform="translate(496, 140)">
        <rect x="0" y="0" width="476" height="128" rx="6" fill="#ffffff" stroke="#cfd4dc" stroke-width="1"/>
        <rect x="0" y="0" width="4" height="128" rx="2" fill="#2e8540"/>
        <text x="14" y="22" class="text-item-title" fill="#154721">Regulación SUSCERTE &amp; PKI Nacional</text>
        <text x="14" y="42" class="text-item-desc">• Normas técnicas para Proveedores de Certificación (PSC).</text>
        <text x="14" y="60" class="text-item-desc">• Jerarquía de la Autoridad Certificadora Raíz del Estado.</text>
        <text x="14" y="78" class="text-item-desc">• Sellado de tiempo y listas de revocación CRL/OCSP.</text>
        <rect x="14" y="96" width="448" height="22" rx="3" fill="#eaf4ec"/>
        <text x="238" y="111" class="text-tag" fill="#154721" text-anchor="middle">Superintendencia de Certificación Electrónica</text>
      </g>
    </g>
  </g>

  <!-- Flow Arrow 3 to 4 -->
  <path d="M 540 1162 L 540 1184" class="flow-arrow-down" stroke="#2e8540" marker-end="url(#arrow-down-green)"/>

  <!-- ================= 4. PILAR 4: RÉGIMEN SANCIONATORIO Y CUSTODIA ================= -->
  <g transform="translate(40, 1186)">
    <rect x="0" y="0" width="1000" height="330" rx="8" fill="#f8fafc" stroke="#cfd4dc" stroke-width="1.5" filter="url(#nat-shadow-1)"/>
    <rect x="0" y="0" width="1000" height="34" rx="8" fill="url(#pilar4Grad)"/>
    <rect y="24" width="1000" height="10" fill="url(#pilar4Grad)"/>

    <circle cx="22" cy="17" r="10" fill="#ffffff"/>
    <text x="22" y="21" class="text-flow-num" fill="#8c3b00" text-anchor="middle">4</text>
    <text x="40" y="21" class="text-header-box">PILAR 4: RÉGIMEN SANCIONATORIO ESCALONADO Y CADENA DE CUSTODIA</text>
    <text x="980" y="21" class="text-tag" fill="#fef6e7" text-anchor="end">Garantías &amp; Responsabilidad</text>

    <!-- 4 Sub-boxes in 2x2 Grid -->
    <g transform="translate(14, 46)">
      <!-- Box 4.1 -->
      <g transform="translate(0, 0)">
        <rect x="0" y="0" width="476" height="128" rx="6" fill="#ffffff" stroke="#cfd4dc" stroke-width="1"/>
        <rect x="0" y="0" width="4" height="128" rx="2" fill="#df7e00"/>
        <text x="14" y="22" class="text-item-title" fill="#8c3b00">Catálogo Escalonado de Sanciones (Arts. 33-37)</text>
        <text x="14" y="42" class="text-item-desc">• Tipificación precisa: Infracciones Leves, Graves y Muy Graves.</text>
        <text x="14" y="60" class="text-item-desc">• Multas proporcionales calculadas en moneda oficial.</text>
        <text x="14" y="78" class="text-item-desc">• Inhabilitación temporal para el ejercicio de funciones públicas.</text>
        <rect x="14" y="96" width="448" height="22" rx="3" fill="#fef6e7"/>
        <text x="238" y="111" class="text-tag" fill="#8c3b00" text-anchor="middle">Proporcionalidad y Tipicidad Garantista</text>
      </g>

      <!-- Box 4.2 -->
      <g transform="translate(496, 0)">
        <rect x="0" y="0" width="476" height="128" rx="6" fill="#ffffff" stroke="#cfd4dc" stroke-width="1"/>
        <rect x="0" y="0" width="4" height="128" rx="2" fill="#df7e00"/>
        <text x="14" y="22" class="text-item-title" fill="#8c3b00">Doble Instancia &amp; Presunción de Inocencia</text>
        <text x="14" y="42" class="text-item-desc">• Plenas garantías del debido proceso administrativo (Art. 49).</text>
        <text x="14" y="60" class="text-item-desc">• Derecho a la contradicción técnica y peritaje informático.</text>
        <text x="14" y="78" class="text-item-desc">• Recurso jerárquico ante la máxima autoridad o Sala Pol-Adm.</text>
        <rect x="14" y="96" width="448" height="22" rx="3" fill="#fef6e7"/>
        <text x="238" y="111" class="text-tag" fill="#8c3b00" text-anchor="middle">Garantías Constitucionales Procesales</text>
      </g>

      <!-- Box 4.3 -->
      <g transform="translate(0, 140)">
        <rect x="0" y="0" width="476" height="128" rx="6" fill="#ffffff" stroke="#cfd4dc" stroke-width="1"/>
        <rect x="0" y="0" width="4" height="128" rx="2" fill="#df7e00"/>
        <text x="14" y="22" class="text-item-title" fill="#8c3b00">Manual Único de Cadena de Custodia (2017)</text>
        <text x="14" y="42" class="text-item-desc">• Protocolo oficial MP / CICPC para evidencias digitales.</text>
        <text x="14" y="60" class="text-item-desc">• Trazabilidad matemática inalterable mediante hash SHA-256/3.</text>
        <text x="14" y="78" class="text-item-desc">• Prohibición de manipulación de soportes sin acta pericial.</text>
        <rect x="14" y="96" width="448" height="22" rx="3" fill="#fef6e7"/>
        <text x="238" y="111" class="text-tag" fill="#8c3b00" text-anchor="middle">Resolución Conjunta MP / MinInterior (2017)</text>
      </g>

      <!-- Box 4.4 -->
      <g transform="translate(496, 140)">
        <rect x="0" y="0" width="476" height="128" rx="6" fill="#ffffff" stroke="#cfd4dc" stroke-width="1"/>
        <rect x="0" y="0" width="4" height="128" rx="2" fill="#df7e00"/>
        <text x="14" y="22" class="text-item-title" fill="#8c3b00">Auditoría por el Poder Ciudadano</text>
        <text x="14" y="42" class="text-item-desc">• Intervención de la Contraloría General de la República (CGR).</text>
        <text x="14" y="60" class="text-item-desc">• Control fiscal sobre contratos y adquisiciones tecnológicas.</text>
        <text x="14" y="78" class="text-item-desc">• Responsabilidad civil y administrativa de directores y peritos.</text>
        <rect x="14" y="96" width="448" height="22" rx="3" fill="#fef6e7"/>
        <text x="238" y="111" class="text-tag" fill="#8c3b00" text-anchor="middle">Control Fiscal y Responsabilidad Pública</text>
      </g>
    </g>
  </g>

  <!-- ================= 6. WATERMARK FOOTER ================= -->
  <g transform="translate(40, 1535)">
    <rect width="1000" height="75" rx="8" fill="#f8fafc" stroke="#cbd5e1" stroke-width="1"/>
    <text x="20" y="32" font-family="'Public Sans', sans-serif" font-size="10.5px" fill="#5c6b7e">
      Ulpiano Chief Compliance Officer • <tspan font-weight="700" fill="#0050a0">Marco Legal Nacional V-1.2</tspan> • Autor: <tspan font-weight="700" fill="#0050a0">Jull Ortiz (sha256.us ↗)</tspan> • Formato Hoja Folio Vertical
    </text>
    <text x="980" y="32" font-family="'Roboto Mono', monospace" font-size="9.8px" fill="#5c6b7e" text-anchor="end">
      CRBV 1999 • LMDyFE G.O. 37.148 • Infogobierno G.O. 40.274 • LOCOTA 2026
    </text>
    <text x="20" y="54" font-family="'Public Sans', sans-serif" font-size="9.5px" fill="#94a3b8">
      Design System USWDS 3.0 • Section 508 / WCAG 2.1 AAA • Tokens Semánticos Light • Hoja Folio Oficial (8.5" × 13")
    </text>
    <text x="980" y="54" font-family="'Public Sans', sans-serif" font-size="9.5px" fill="#b50909" text-anchor="end" font-weight="700">
      SUPREMACÍA Y JERARQUÍA CONSTITUCIONAL
    </text>
  </g>
</svg>
